<?xml version="1.0" encoding="UTF-8"?>
<!-- Generator: Adobe Illustrator 22.1.0, SVG Export Plug-In . SVG Version: 6.00 Build 0)  -->
<svg version="1.1" id="Nachbau" xmlns="http://www.w3.org/2000/svg" xmlns:xlink="http://www.w3.org/1999/xlink" x="0px" y="0px" viewBox="0 0 707.5 159" style="enable-background:new 0 0 707.5 159;" xml:space="preserve">
<style type="text/css">
	.st0{fill:#3969B1;}
	.st1{fill:#C4017B;}
</style>
<g>
	<path class="st0" d="M13.3,153c-1.1,0.9-2.1,1.6-3.1,1.9c-1,0.4-2.1,0.6-3.2,0.6c-1.9,0-3.3-0.5-4.3-1.4c-1-0.9-1.5-2.1-1.5-3.5   c0-0.8,0.2-1.6,0.6-2.3c0.4-0.7,0.9-1.2,1.5-1.7s1.3-0.7,2.1-1c0.6-0.2,1.4-0.3,2.6-0.4c2.3-0.3,4.1-0.6,5.2-1c0-0.4,0-0.6,0-0.8   c0-1.2-0.3-2-0.8-2.5c-0.7-0.7-1.8-1-3.3-1c-1.4,0-2.4,0.2-3,0.7s-1.1,1.3-1.4,2.5l-2.8-0.4c0.3-1.2,0.7-2.2,1.3-2.9   c0.6-0.7,1.4-1.3,2.6-1.7c1.1-0.4,2.4-0.6,3.9-0.6c1.5,0,2.6,0.2,3.6,0.5s1.6,0.8,2,1.3c0.4,0.5,0.7,1.2,0.9,2   c0.1,0.5,0.1,1.4,0.1,2.7v3.9c0,2.7,0.1,4.4,0.2,5.1c0.1,0.7,0.4,1.4,0.7,2.1h-3C13.6,154.5,13.4,153.8,13.3,153z M13.1,146.5   c-1.1,0.4-2.6,0.8-4.7,1.1c-1.2,0.2-2,0.4-2.5,0.6s-0.9,0.5-1.1,0.9s-0.4,0.9-0.4,1.4c0,0.8,0.3,1.4,0.9,1.9s1.4,0.8,2.6,0.8   c1.1,0,2.1-0.2,3-0.7s1.5-1.2,1.9-2c0.3-0.7,0.5-1.6,0.5-2.9V146.5z"/>
	<path class="st0" d="M20.5,155.1V138h2.6v2.4c1.3-1.9,3.1-2.8,5.4-2.8c1,0,2,0.2,2.8,0.6c0.9,0.4,1.5,0.9,1.9,1.5s0.7,1.3,0.9,2.1   c0.1,0.5,0.2,1.5,0.2,2.8v10.5h-2.9v-10.4c0-1.2-0.1-2.1-0.3-2.7s-0.6-1.1-1.2-1.4c-0.6-0.3-1.2-0.5-2-0.5c-1.2,0-2.3,0.4-3.2,1.2   s-1.3,2.3-1.3,4.5v9.3H20.5z"/>
	<path class="st0" d="M47.9,134.8v-3.3h2.9v3.3H47.9z M47.9,155.1V138h2.9v17.1H47.9z"/>
	<path class="st0" d="M55.1,155.1V138h2.6v2.4c1.3-1.9,3.1-2.8,5.4-2.8c1,0,2,0.2,2.8,0.6c0.9,0.4,1.5,0.9,1.9,1.5s0.7,1.3,0.9,2.1   c0.1,0.5,0.2,1.5,0.2,2.8v10.5h-2.9v-10.4c0-1.2-0.1-2.1-0.3-2.7s-0.6-1.1-1.2-1.4c-0.6-0.3-1.2-0.5-2-0.5c-1.2,0-2.3,0.4-3.2,1.2   s-1.3,2.3-1.3,4.5v9.3H55.1z"/>
	<path class="st0" d="M74.1,155.1v-14.9h-2.6V138h2.6v-1.8c0-1.1,0.1-2,0.3-2.6c0.3-0.8,0.8-1.4,1.5-1.8c0.7-0.5,1.7-0.7,3-0.7   c0.8,0,1.7,0.1,2.7,0.3l-0.4,2.5c-0.6-0.1-1.2-0.2-1.7-0.2c-0.9,0-1.5,0.2-1.9,0.6s-0.5,1.1-0.5,2.1v1.6h3.3v2.3H77v14.9H74.1z"/>
	<path class="st0" d="M81.4,146.6c0-3.2,0.9-5.5,2.6-7c1.5-1.3,3.3-1.9,5.4-1.9c2.4,0,4.3,0.8,5.8,2.3s2.2,3.7,2.2,6.4   c0,2.2-0.3,3.9-1,5.2c-0.7,1.3-1.6,2.2-2.9,2.9s-2.6,1-4.1,1c-2.4,0-4.3-0.8-5.8-2.3C82.2,151.7,81.4,149.5,81.4,146.6z    M84.4,146.6c0,2.2,0.5,3.8,1.4,4.9c1,1.1,2.2,1.6,3.6,1.6c1.4,0,2.6-0.5,3.6-1.6s1.4-2.8,1.4-5c0-2.1-0.5-3.7-1.4-4.8   c-1-1.1-2.2-1.6-3.6-1.6c-1.5,0-2.7,0.5-3.6,1.6S84.4,144.4,84.4,146.6z"/>
	<path class="st0" d="M100.8,155.1V138h2.6v2.6c0.7-1.2,1.3-2,1.8-2.4c0.6-0.4,1.2-0.6,1.9-0.6c1,0,2,0.3,3,0.9l-1,2.7   c-0.7-0.4-1.4-0.6-2.1-0.6c-0.6,0-1.2,0.2-1.7,0.6s-0.9,0.9-1.1,1.6c-0.3,1-0.5,2.2-0.5,3.4v9H100.8z"/>
	<path class="st0" d="M111.7,155.1V138h2.6v2.4c0.5-0.8,1.3-1.5,2.1-2s1.9-0.8,3-0.8c1.3,0,2.3,0.3,3.1,0.8c0.8,0.5,1.4,1.3,1.7,2.2   c1.4-2,3.1-3,5.3-3c1.7,0,3,0.5,3.9,1.4s1.4,2.4,1.4,4.3v11.7H132v-10.8c0-1.2-0.1-2-0.3-2.5c-0.2-0.5-0.5-0.9-1-1.2   s-1.1-0.5-1.7-0.5c-1.2,0-2.2,0.4-3,1.2c-0.8,0.8-1.2,2.1-1.2,3.8v9.9h-2.9V144c0-1.3-0.2-2.3-0.7-2.9s-1.2-1-2.3-1   c-0.8,0-1.6,0.2-2.3,0.6c-0.7,0.4-1.2,1.1-1.5,1.9s-0.5,2-0.5,3.6v8.9H111.7z"/>
	<path class="st0" d="M150.3,153c-1.1,0.9-2.1,1.6-3.1,1.9c-1,0.4-2.1,0.6-3.2,0.6c-1.9,0-3.3-0.5-4.3-1.4c-1-0.9-1.5-2.1-1.5-3.5   c0-0.8,0.2-1.6,0.6-2.3c0.4-0.7,0.9-1.2,1.5-1.7s1.3-0.7,2.1-1c0.6-0.2,1.4-0.3,2.6-0.4c2.3-0.3,4.1-0.6,5.2-1c0-0.4,0-0.6,0-0.8   c0-1.2-0.3-2-0.8-2.5c-0.7-0.7-1.8-1-3.3-1c-1.4,0-2.4,0.2-3,0.7s-1.1,1.3-1.4,2.5l-2.8-0.4c0.3-1.2,0.7-2.2,1.3-2.9   c0.6-0.7,1.4-1.3,2.6-1.7c1.1-0.4,2.4-0.6,3.9-0.6c1.5,0,2.6,0.2,3.6,0.5s1.6,0.8,2,1.3c0.4,0.5,0.7,1.2,0.9,2   c0.1,0.5,0.1,1.4,0.1,2.7v3.9c0,2.7,0.1,4.4,0.2,5.1c0.1,0.7,0.4,1.4,0.7,2.1h-3C150.6,154.5,150.4,153.8,150.3,153z M150.1,146.5   c-1.1,0.4-2.6,0.8-4.7,1.1c-1.2,0.2-2,0.4-2.5,0.6s-0.9,0.5-1.1,0.9s-0.4,0.9-0.4,1.4c0,0.8,0.3,1.4,0.9,1.9s1.4,0.8,2.6,0.8   c1.1,0,2.1-0.2,3-0.7s1.5-1.2,1.9-2c0.3-0.7,0.5-1.6,0.5-2.9V146.5z"/>
	<path class="st0" d="M163.8,152.5l0.4,2.6c-0.8,0.2-1.5,0.3-2.2,0.3c-1.1,0-1.9-0.2-2.4-0.5s-1-0.8-1.2-1.3s-0.4-1.7-0.4-3.4v-9.8   h-2.1V138h2.1v-4.2l2.9-1.7v6h2.9v2.3h-2.9v10c0,0.8,0.1,1.4,0.2,1.6s0.3,0.4,0.5,0.6c0.2,0.1,0.6,0.2,1,0.2   C162.8,152.6,163.2,152.6,163.8,152.5z"/>
	<path class="st0" d="M166.5,134.8v-3.3h2.9v3.3H166.5z M166.5,155.1V138h2.9v17.1H166.5z"/>
	<path class="st0" d="M172.7,146.6c0-3.2,0.9-5.5,2.6-7c1.5-1.3,3.3-1.9,5.4-1.9c2.4,0,4.3,0.8,5.8,2.3s2.2,3.7,2.2,6.4   c0,2.2-0.3,3.9-1,5.2c-0.7,1.3-1.6,2.2-2.9,2.9s-2.6,1-4.1,1c-2.4,0-4.3-0.8-5.8-2.3C173.5,151.7,172.7,149.5,172.7,146.6z    M175.7,146.6c0,2.2,0.5,3.8,1.4,4.9c1,1.1,2.2,1.6,3.6,1.6c1.4,0,2.6-0.5,3.6-1.6s1.4-2.8,1.4-5c0-2.1-0.5-3.7-1.4-4.8   c-1-1.1-2.2-1.6-3.6-1.6c-1.5,0-2.7,0.5-3.6,1.6S175.7,144.4,175.7,146.6z"/>
	<path class="st0" d="M192.1,155.1V138h2.6v2.4c1.3-1.9,3.1-2.8,5.4-2.8c1,0,2,0.2,2.8,0.6c0.9,0.4,1.5,0.9,1.9,1.5s0.7,1.3,0.9,2.1   c0.1,0.5,0.2,1.5,0.2,2.8v10.5h-2.9v-10.4c0-1.2-0.1-2.1-0.3-2.7s-0.6-1.1-1.2-1.4c-0.6-0.3-1.2-0.5-2-0.5c-1.2,0-2.3,0.4-3.2,1.2   s-1.3,2.3-1.3,4.5v9.3H192.1z"/>
	<path class="st0" d="M218.3,150l2.9-0.5c0.2,1.1,0.6,2,1.3,2.6s1.8,0.9,3.1,0.9c1.3,0,2.3-0.3,3-0.8s1-1.2,1-1.9   c0-0.7-0.3-1.2-0.9-1.5c-0.4-0.3-1.4-0.6-3-1c-2.1-0.5-3.6-1-4.4-1.4c-0.8-0.4-1.4-0.9-1.9-1.6c-0.4-0.7-0.6-1.5-0.6-2.3   c0-0.8,0.2-1.5,0.5-2.1c0.3-0.6,0.8-1.2,1.4-1.6c0.5-0.3,1.1-0.6,1.8-0.8s1.6-0.3,2.5-0.3c1.3,0,2.5,0.2,3.5,0.6   c1,0.4,1.8,0.9,2.2,1.6c0.5,0.7,0.8,1.5,1,2.7l-2.8,0.4c-0.1-0.9-0.5-1.6-1.1-2.1c-0.6-0.5-1.5-0.7-2.6-0.7c-1.3,0-2.3,0.2-2.9,0.7   s-0.9,1-0.9,1.5c0,0.4,0.1,0.7,0.4,1c0.2,0.3,0.6,0.6,1.1,0.8c0.3,0.1,1.1,0.4,2.6,0.7c2.1,0.5,3.5,1,4.3,1.3   c0.8,0.3,1.4,0.9,1.9,1.5s0.7,1.5,0.7,2.5c0,1-0.3,1.9-0.8,2.7c-0.6,0.9-1.4,1.5-2.4,2c-1.1,0.5-2.3,0.7-3.6,0.7   c-2.2,0-3.9-0.5-5.1-1.4C219.4,153.2,218.6,151.8,218.3,150z"/>
	<path class="st0" d="M247.6,149.6l3,0.4c-0.5,1.8-1.3,3.1-2.6,4.1s-2.9,1.5-4.9,1.5c-2.5,0-4.5-0.8-6-2.3c-1.5-1.5-2.2-3.7-2.2-6.5   c0-2.9,0.7-5.1,2.2-6.7s3.4-2.4,5.8-2.4c2.3,0,4.2,0.8,5.6,2.3s2.2,3.7,2.2,6.6c0,0.2,0,0.4,0,0.8h-12.8c0.1,1.9,0.6,3.3,1.6,4.3   s2.1,1.5,3.6,1.5c1.1,0,2-0.3,2.7-0.8S247.2,150.8,247.6,149.6z M238.1,144.9h9.6c-0.1-1.4-0.5-2.5-1.1-3.2   c-0.9-1.1-2.1-1.7-3.6-1.7c-1.3,0-2.5,0.4-3.4,1.3S238.2,143.4,238.1,144.9z"/>
	<path class="st0" d="M254.2,155.1V138h2.6v2.6c0.7-1.2,1.3-2,1.8-2.4c0.6-0.4,1.2-0.6,1.9-0.6c1,0,2,0.3,3,0.9l-1,2.7   c-0.7-0.4-1.4-0.6-2.1-0.6c-0.6,0-1.2,0.2-1.7,0.6s-0.9,0.9-1.1,1.6c-0.3,1-0.5,2.2-0.5,3.4v9H254.2z"/>
	<path class="st0" d="M269.9,155.1l-6.5-17.1h3.1l3.7,10.2c0.4,1.1,0.8,2.3,1.1,3.4c0.3-0.9,0.6-2,1.1-3.3l3.8-10.4h3l-6.5,17.1   H269.9z"/>
	<path class="st0" d="M281.6,134.8v-3.3h2.9v3.3H281.6z M281.6,155.1V138h2.9v17.1H281.6z"/>
	<path class="st0" d="M300,148.9l2.9,0.4c-0.3,2-1.1,3.5-2.4,4.6c-1.3,1.1-2.9,1.7-4.7,1.7c-2.3,0-4.2-0.8-5.6-2.3   c-1.4-1.5-2.1-3.7-2.1-6.6c0-1.8,0.3-3.5,0.9-4.9s1.5-2.4,2.8-3.1c1.3-0.7,2.6-1,4.1-1c1.9,0,3.4,0.5,4.6,1.4s1.9,2.3,2.3,4   l-2.8,0.4c-0.3-1.1-0.7-2-1.4-2.6s-1.5-0.9-2.5-0.9c-1.5,0-2.6,0.5-3.6,1.6c-0.9,1-1.4,2.7-1.4,5c0,2.3,0.4,4,1.3,5s2,1.6,3.4,1.6   c1.1,0,2.1-0.3,2.9-1S299.8,150.3,300,148.9z"/>
	<path class="st0" d="M317,149.6l3,0.4c-0.5,1.8-1.3,3.1-2.6,4.1s-2.9,1.5-4.9,1.5c-2.5,0-4.5-0.8-6-2.3c-1.5-1.5-2.2-3.7-2.2-6.5   c0-2.9,0.7-5.1,2.2-6.7s3.4-2.4,5.8-2.4c2.3,0,4.2,0.8,5.6,2.3s2.2,3.7,2.2,6.6c0,0.2,0,0.4,0,0.8h-12.8c0.1,1.9,0.6,3.3,1.6,4.3   s2.1,1.5,3.6,1.5c1.1,0,2-0.3,2.7-0.8S316.5,150.8,317,149.6z M307.4,144.9h9.6c-0.1-1.4-0.5-2.5-1.1-3.2c-0.9-1.1-2.1-1.7-3.6-1.7   c-1.3,0-2.5,0.4-3.4,1.3S307.5,143.4,307.4,144.9z"/>
	<path class="st0" d="M333.3,155.1v-14.9h-2.6V138h2.6v-1.8c0-1.1,0.1-2,0.3-2.6c0.3-0.8,0.8-1.4,1.5-1.8c0.7-0.5,1.7-0.7,3-0.7   c0.8,0,1.7,0.1,2.7,0.3l-0.4,2.5c-0.6-0.1-1.2-0.2-1.7-0.2c-0.9,0-1.5,0.2-1.9,0.6s-0.5,1.1-0.5,2.1v1.6h3.3v2.3h-3.3v14.9H333.3z"/>
	<path class="st0" d="M340.7,146.6c0-3.2,0.9-5.5,2.6-7c1.5-1.3,3.3-1.9,5.4-1.9c2.4,0,4.3,0.8,5.8,2.3s2.2,3.7,2.2,6.4   c0,2.2-0.3,3.9-1,5.2c-0.7,1.3-1.6,2.2-2.9,2.9s-2.6,1-4.1,1c-2.4,0-4.3-0.8-5.8-2.3C341.4,151.7,340.7,149.5,340.7,146.6z    M343.6,146.6c0,2.2,0.5,3.8,1.4,4.9c1,1.1,2.2,1.6,3.6,1.6c1.4,0,2.6-0.5,3.6-1.6s1.4-2.8,1.4-5c0-2.1-0.5-3.7-1.4-4.8   c-1-1.1-2.2-1.6-3.6-1.6c-1.5,0-2.7,0.5-3.6,1.6S343.6,144.4,343.6,146.6z"/>
	<path class="st0" d="M360,155.1V138h2.6v2.6c0.7-1.2,1.3-2,1.8-2.4c0.6-0.4,1.2-0.6,1.9-0.6c1,0,2,0.3,3,0.9l-1,2.7   c-0.7-0.4-1.4-0.6-2.1-0.6c-0.6,0-1.2,0.2-1.7,0.6s-0.9,0.9-1.1,1.6c-0.3,1-0.5,2.2-0.5,3.4v9H360z"/>
	<path class="st0" d="M380.1,155.1V138h2.6v2.4c0.5-0.8,1.3-1.5,2.1-2s1.9-0.8,3-0.8c1.3,0,2.3,0.3,3.1,0.8c0.8,0.5,1.4,1.3,1.7,2.2   c1.4-2,3.1-3,5.3-3c1.7,0,3,0.5,3.9,1.4s1.4,2.4,1.4,4.3v11.7h-2.9v-10.8c0-1.2-0.1-2-0.3-2.5c-0.2-0.5-0.5-0.9-1-1.2   s-1.1-0.5-1.7-0.5c-1.2,0-2.2,0.4-3,1.2c-0.8,0.8-1.2,2.1-1.2,3.8v9.9h-2.9V144c0-1.3-0.2-2.3-0.7-2.9s-1.2-1-2.3-1   c-0.8,0-1.6,0.2-2.3,0.6c-0.7,0.4-1.2,1.1-1.5,1.9s-0.5,2-0.5,3.6v8.9H380.1z"/>
	<path class="st0" d="M418.6,153c-1.1,0.9-2.1,1.6-3.1,1.9c-1,0.4-2.1,0.6-3.2,0.6c-1.9,0-3.3-0.5-4.3-1.4c-1-0.9-1.5-2.1-1.5-3.5   c0-0.8,0.2-1.6,0.6-2.3c0.4-0.7,0.9-1.2,1.5-1.7c0.6-0.4,1.3-0.7,2.1-1c0.6-0.2,1.4-0.3,2.6-0.4c2.3-0.3,4.1-0.6,5.2-1   c0-0.4,0-0.6,0-0.8c0-1.2-0.3-2-0.8-2.5c-0.7-0.7-1.8-1-3.3-1c-1.4,0-2.4,0.2-3,0.7c-0.6,0.5-1.1,1.3-1.4,2.5l-2.8-0.4   c0.3-1.2,0.7-2.2,1.3-2.9c0.6-0.7,1.4-1.3,2.6-1.7c1.1-0.4,2.4-0.6,3.9-0.6c1.5,0,2.6,0.2,3.6,0.5s1.6,0.8,2,1.3   c0.4,0.5,0.7,1.2,0.9,2c0.1,0.5,0.1,1.4,0.1,2.7v3.9c0,2.7,0.1,4.4,0.2,5.1c0.1,0.7,0.4,1.4,0.7,2.1h-3   C418.9,154.5,418.7,153.8,418.6,153z M418.4,146.5c-1.1,0.4-2.6,0.8-4.7,1.1c-1.2,0.2-2,0.4-2.5,0.6s-0.9,0.5-1.1,0.9   c-0.3,0.4-0.4,0.9-0.4,1.4c0,0.8,0.3,1.4,0.9,1.9c0.6,0.5,1.4,0.8,2.6,0.8c1.1,0,2.1-0.2,3-0.7c0.9-0.5,1.5-1.2,1.9-2   c0.3-0.7,0.5-1.6,0.5-2.9V146.5z"/>
	<path class="st0" d="M432.1,152.5l0.4,2.6c-0.8,0.2-1.5,0.3-2.2,0.3c-1.1,0-1.9-0.2-2.4-0.5s-1-0.8-1.2-1.3s-0.4-1.7-0.4-3.4v-9.8   h-2.1V138h2.1v-4.2l2.9-1.7v6h2.9v2.3h-2.9v10c0,0.8,0.1,1.4,0.2,1.6c0.1,0.2,0.3,0.4,0.5,0.6c0.2,0.1,0.6,0.2,1,0.2   C431.1,152.6,431.6,152.6,432.1,152.5z"/>
	<path class="st0" d="M434.9,155.1v-23.6h2.9v8.5c1.4-1.6,3.1-2.4,5.1-2.4c1.3,0,2.4,0.2,3.3,0.7c0.9,0.5,1.6,1.2,2,2.1   c0.4,0.9,0.6,2.2,0.6,3.8v10.8h-2.9v-10.8c0-1.5-0.3-2.5-0.9-3.2c-0.6-0.7-1.5-1-2.7-1c-0.9,0-1.7,0.2-2.4,0.7   c-0.8,0.4-1.3,1.1-1.6,1.8s-0.5,1.8-0.5,3.2v9.4H434.9z"/>
	<path class="st0" d="M464.9,149.6l3,0.4c-0.5,1.8-1.3,3.1-2.6,4.1s-2.9,1.5-4.9,1.5c-2.5,0-4.5-0.8-6-2.3c-1.5-1.5-2.2-3.7-2.2-6.5   c0-2.9,0.7-5.1,2.2-6.7s3.4-2.4,5.8-2.4c2.3,0,4.2,0.8,5.6,2.3c1.4,1.6,2.2,3.7,2.2,6.6c0,0.2,0,0.4,0,0.8h-12.8   c0.1,1.9,0.6,3.3,1.6,4.3s2.1,1.5,3.6,1.5c1.1,0,2-0.3,2.7-0.8C463.8,151.7,464.4,150.8,464.9,149.6z M455.3,144.9h9.6   c-0.1-1.4-0.5-2.5-1.1-3.2c-0.9-1.1-2.1-1.7-3.6-1.7c-1.3,0-2.5,0.4-3.4,1.3C455.9,142.2,455.4,143.4,455.3,144.9z"/>
	<path class="st0" d="M471.4,155.1V138h2.6v2.4c0.5-0.8,1.3-1.5,2.1-2s1.9-0.8,3-0.8c1.3,0,2.3,0.3,3.1,0.8c0.8,0.5,1.4,1.3,1.7,2.2   c1.4-2,3.1-3,5.3-3c1.7,0,3,0.5,3.9,1.4s1.4,2.4,1.4,4.3v11.7h-2.9v-10.8c0-1.2-0.1-2-0.3-2.5c-0.2-0.5-0.5-0.9-1-1.2   s-1.1-0.5-1.7-0.5c-1.2,0-2.2,0.4-3,1.2c-0.8,0.8-1.2,2.1-1.2,3.8v9.9h-2.9V144c0-1.3-0.2-2.3-0.7-2.9s-1.2-1-2.3-1   c-0.8,0-1.6,0.2-2.3,0.6c-0.7,0.4-1.2,1.1-1.5,1.9s-0.5,2-0.5,3.6v8.9H471.4z"/>
	<path class="st0" d="M510,153c-1.1,0.9-2.1,1.6-3.1,1.9c-1,0.4-2.1,0.6-3.2,0.6c-1.9,0-3.3-0.5-4.3-1.4c-1-0.9-1.5-2.1-1.5-3.5   c0-0.8,0.2-1.6,0.6-2.3c0.4-0.7,0.9-1.2,1.5-1.7c0.6-0.4,1.3-0.7,2.1-1c0.6-0.2,1.4-0.3,2.6-0.4c2.3-0.3,4.1-0.6,5.2-1   c0-0.4,0-0.6,0-0.8c0-1.2-0.3-2-0.8-2.5c-0.7-0.7-1.8-1-3.3-1c-1.4,0-2.4,0.2-3,0.7c-0.6,0.5-1.1,1.3-1.4,2.5l-2.8-0.4   c0.3-1.2,0.7-2.2,1.3-2.9c0.6-0.7,1.4-1.3,2.6-1.7c1.1-0.4,2.4-0.6,3.9-0.6c1.5,0,2.6,0.2,3.6,0.5s1.6,0.8,2,1.3   c0.4,0.5,0.7,1.2,0.9,2c0.1,0.5,0.1,1.4,0.1,2.7v3.9c0,2.7,0.1,4.4,0.2,5.1c0.1,0.7,0.4,1.4,0.7,2.1h-3   C510.3,154.5,510.1,153.8,510,153z M509.8,146.5c-1.1,0.4-2.6,0.8-4.7,1.1c-1.2,0.2-2,0.4-2.5,0.6s-0.9,0.5-1.1,0.9   c-0.3,0.4-0.4,0.9-0.4,1.4c0,0.8,0.3,1.4,0.9,1.9c0.6,0.5,1.4,0.8,2.6,0.8c1.1,0,2.1-0.2,3-0.7c0.9-0.5,1.5-1.2,1.9-2   c0.3-0.7,0.5-1.6,0.5-2.9V146.5z"/>
	<path class="st0" d="M523.5,152.5l0.4,2.6c-0.8,0.2-1.5,0.3-2.2,0.3c-1.1,0-1.9-0.2-2.4-0.5s-1-0.8-1.2-1.3s-0.4-1.7-0.4-3.4v-9.8   h-2.1V138h2.1v-4.2l2.9-1.7v6h2.9v2.3h-2.9v10c0,0.8,0.1,1.4,0.2,1.6c0.1,0.2,0.3,0.4,0.5,0.6c0.2,0.1,0.6,0.2,1,0.2   C522.5,152.6,523,152.6,523.5,152.5z"/>
	<path class="st0" d="M526.3,134.8v-3.3h2.9v3.3H526.3z M526.3,155.1V138h2.9v17.1H526.3z"/>
	<path class="st0" d="M544.7,148.9l2.9,0.4c-0.3,2-1.1,3.5-2.4,4.6c-1.3,1.1-2.9,1.7-4.7,1.7c-2.3,0-4.2-0.8-5.6-2.3   c-1.4-1.5-2.1-3.7-2.1-6.6c0-1.8,0.3-3.5,0.9-4.9c0.6-1.4,1.5-2.4,2.8-3.1c1.3-0.7,2.6-1,4.1-1c1.9,0,3.4,0.5,4.6,1.4   c1.2,0.9,1.9,2.3,2.3,4l-2.8,0.4c-0.3-1.1-0.7-2-1.4-2.6c-0.7-0.6-1.5-0.9-2.5-0.9c-1.5,0-2.6,0.5-3.6,1.6c-0.9,1-1.4,2.7-1.4,5   c0,2.3,0.4,4,1.3,5c0.9,1,2,1.6,3.4,1.6c1.1,0,2.1-0.3,2.9-1S544.5,150.3,544.7,148.9z"/>
	<path class="st0" d="M561.1,153c-1.1,0.9-2.1,1.6-3.1,1.9c-1,0.4-2.1,0.6-3.2,0.6c-1.9,0-3.3-0.5-4.3-1.4c-1-0.9-1.5-2.1-1.5-3.5   c0-0.8,0.2-1.6,0.6-2.3c0.4-0.7,0.9-1.2,1.5-1.7c0.6-0.4,1.3-0.7,2.1-1c0.6-0.2,1.4-0.3,2.6-0.4c2.3-0.3,4.1-0.6,5.2-1   c0-0.4,0-0.6,0-0.8c0-1.2-0.3-2-0.8-2.5c-0.7-0.7-1.8-1-3.3-1c-1.4,0-2.4,0.2-3,0.7c-0.6,0.5-1.1,1.3-1.4,2.5l-2.8-0.4   c0.3-1.2,0.7-2.2,1.3-2.9c0.6-0.7,1.4-1.3,2.6-1.7c1.1-0.4,2.4-0.6,3.9-0.6c1.5,0,2.6,0.2,3.6,0.5s1.6,0.8,2,1.3   c0.4,0.5,0.7,1.2,0.9,2c0.1,0.5,0.1,1.4,0.1,2.7v3.9c0,2.7,0.1,4.4,0.2,5.1c0.1,0.7,0.4,1.4,0.7,2.1h-3   C561.4,154.5,561.2,153.8,561.1,153z M560.9,146.5c-1.1,0.4-2.6,0.8-4.7,1.1c-1.2,0.2-2,0.4-2.5,0.6s-0.9,0.5-1.1,0.9   c-0.3,0.4-0.4,0.9-0.4,1.4c0,0.8,0.3,1.4,0.9,1.9c0.6,0.5,1.4,0.8,2.6,0.8c1.1,0,2.1-0.2,3-0.7c0.9-0.5,1.5-1.2,1.9-2   c0.3-0.7,0.5-1.6,0.5-2.9V146.5z"/>
	<path class="st0" d="M568.2,155.1v-23.6h2.9v23.6H568.2z"/>
	<path class="st0" d="M583.5,150l2.9-0.5c0.2,1.1,0.6,2,1.3,2.6c0.7,0.6,1.8,0.9,3.1,0.9c1.3,0,2.3-0.3,3-0.8s1-1.2,1-1.9   c0-0.7-0.3-1.2-0.9-1.5c-0.4-0.3-1.4-0.6-3-1c-2.1-0.5-3.6-1-4.4-1.4c-0.8-0.4-1.4-0.9-1.9-1.6c-0.4-0.7-0.6-1.5-0.6-2.3   c0-0.8,0.2-1.5,0.5-2.1c0.3-0.6,0.8-1.2,1.4-1.6c0.5-0.3,1.1-0.6,1.8-0.8c0.8-0.2,1.6-0.3,2.5-0.3c1.3,0,2.5,0.2,3.5,0.6   c1,0.4,1.8,0.9,2.2,1.6c0.5,0.7,0.8,1.5,1,2.7l-2.8,0.4c-0.1-0.9-0.5-1.6-1.1-2.1c-0.6-0.5-1.5-0.7-2.6-0.7c-1.3,0-2.3,0.2-2.9,0.7   s-0.9,1-0.9,1.5c0,0.4,0.1,0.7,0.4,1c0.2,0.3,0.6,0.6,1.1,0.8c0.3,0.1,1.1,0.4,2.6,0.7c2.1,0.5,3.5,1,4.3,1.3   c0.8,0.3,1.4,0.9,1.9,1.5s0.7,1.5,0.7,2.5c0,1-0.3,1.9-0.8,2.7c-0.6,0.9-1.4,1.5-2.4,2c-1.1,0.5-2.3,0.7-3.6,0.7   c-2.2,0-3.9-0.5-5.1-1.4C584.5,153.2,583.8,151.8,583.5,150z"/>
	<path class="st0" d="M600,146.6c0-3.2,0.9-5.5,2.6-7c1.5-1.3,3.3-1.9,5.4-1.9c2.4,0,4.3,0.8,5.8,2.3s2.2,3.7,2.2,6.4   c0,2.2-0.3,3.9-1,5.2c-0.7,1.3-1.6,2.2-2.9,2.9c-1.3,0.7-2.6,1-4.1,1c-2.4,0-4.3-0.8-5.8-2.3C600.7,151.7,600,149.5,600,146.6z    M602.9,146.6c0,2.2,0.5,3.8,1.4,4.9c1,1.1,2.2,1.6,3.6,1.6c1.4,0,2.6-0.5,3.6-1.6s1.4-2.8,1.4-5c0-2.1-0.5-3.7-1.4-4.8   c-1-1.1-2.2-1.6-3.6-1.6c-1.5,0-2.7,0.5-3.6,1.6S602.9,144.4,602.9,146.6z"/>
	<path class="st0" d="M620,155.1v-14.9h-2.6V138h2.6v-1.8c0-1.1,0.1-2,0.3-2.6c0.3-0.8,0.8-1.4,1.5-1.8c0.7-0.5,1.7-0.7,3-0.7   c0.8,0,1.7,0.1,2.7,0.3l-0.4,2.5c-0.6-0.1-1.2-0.2-1.7-0.2c-0.9,0-1.5,0.2-1.9,0.6c-0.4,0.4-0.5,1.1-0.5,2.1v1.6h3.3v2.3h-3.3v14.9   H620z"/>
	<path class="st0" d="M634.8,152.5l0.4,2.6c-0.8,0.2-1.5,0.3-2.2,0.3c-1.1,0-1.9-0.2-2.4-0.5s-1-0.8-1.2-1.3s-0.4-1.7-0.4-3.4v-9.8   h-2.1V138h2.1v-4.2l2.9-1.7v6h2.9v2.3h-2.9v10c0,0.8,0.1,1.4,0.2,1.6c0.1,0.2,0.3,0.4,0.5,0.6c0.2,0.1,0.6,0.2,1,0.2   C633.8,152.6,634.2,152.6,634.8,152.5z"/>
	<path class="st0" d="M640.7,155.1l-5.2-17.1h3l2.7,9.9l1,3.7c0-0.2,0.3-1.4,0.9-3.5l2.7-10h3l2.6,9.9l0.9,3.3l1-3.3l2.9-9.9h2.8   l-5.3,17.1h-3l-2.7-10.2l-0.7-2.9l-3.5,13.2H640.7z"/>
	<path class="st0" d="M672.5,153c-1.1,0.9-2.1,1.6-3.1,1.9c-1,0.4-2.1,0.6-3.2,0.6c-1.9,0-3.3-0.5-4.3-1.4c-1-0.9-1.5-2.1-1.5-3.5   c0-0.8,0.2-1.6,0.6-2.3c0.4-0.7,0.9-1.2,1.5-1.7c0.6-0.4,1.3-0.7,2.1-1c0.6-0.2,1.4-0.3,2.6-0.4c2.3-0.3,4.1-0.6,5.2-1   c0-0.4,0-0.6,0-0.8c0-1.2-0.3-2-0.8-2.5c-0.7-0.7-1.8-1-3.3-1c-1.4,0-2.4,0.2-3,0.7c-0.6,0.5-1.1,1.3-1.4,2.5l-2.8-0.4   c0.3-1.2,0.7-2.2,1.3-2.9c0.6-0.7,1.4-1.3,2.6-1.7c1.1-0.4,2.4-0.6,3.9-0.6c1.5,0,2.6,0.2,3.6,0.5s1.6,0.8,2,1.3   c0.4,0.5,0.7,1.2,0.9,2c0.1,0.5,0.1,1.4,0.1,2.7v3.9c0,2.7,0.1,4.4,0.2,5.1c0.1,0.7,0.4,1.4,0.7,2.1h-3   C672.7,154.5,672.6,153.8,672.5,153z M672.2,146.5c-1.1,0.4-2.6,0.8-4.7,1.1c-1.2,0.2-2,0.4-2.5,0.6s-0.9,0.5-1.1,0.9   c-0.3,0.4-0.4,0.9-0.4,1.4c0,0.8,0.3,1.4,0.9,1.9c0.6,0.5,1.4,0.8,2.6,0.8c1.1,0,2.1-0.2,3-0.7c0.9-0.5,1.5-1.2,1.9-2   c0.3-0.7,0.5-1.6,0.5-2.9V146.5z"/>
	<path class="st0" d="M679.6,155.1V138h2.6v2.6c0.7-1.2,1.3-2,1.8-2.4c0.6-0.4,1.2-0.6,1.9-0.6c1,0,2,0.3,3,0.9l-1,2.7   c-0.7-0.4-1.4-0.6-2.1-0.6c-0.6,0-1.2,0.2-1.7,0.6s-0.9,0.9-1.1,1.6c-0.3,1-0.5,2.2-0.5,3.4v9H679.6z"/>
	<path class="st0" d="M702.2,149.6l3,0.4c-0.5,1.8-1.3,3.1-2.6,4.1s-2.9,1.5-4.9,1.5c-2.5,0-4.5-0.8-6-2.3c-1.5-1.5-2.2-3.7-2.2-6.5   c0-2.9,0.7-5.1,2.2-6.7s3.4-2.4,5.8-2.4c2.3,0,4.2,0.8,5.6,2.3c1.4,1.6,2.2,3.7,2.2,6.6c0,0.2,0,0.4,0,0.8h-12.8   c0.1,1.9,0.6,3.3,1.6,4.3s2.1,1.5,3.6,1.5c1.1,0,2-0.3,2.7-0.8C701.2,151.7,701.8,150.8,702.2,149.6z M692.7,144.9h9.6   c-0.1-1.4-0.5-2.5-1.1-3.2c-0.9-1.1-2.1-1.7-3.6-1.7c-1.3,0-2.5,0.4-3.4,1.3C693.3,142.2,692.8,143.4,692.7,144.9z"/>
</g>
<g>
	<path class="st0" d="M238.2,84.3l10.4-1.6c0.6,4.2,2.2,7.4,4.9,9.6c2.7,2.2,6.4,3.3,11.2,3.3c4.8,0,8.4-1,10.8-3   c2.3-2,3.5-4.3,3.5-6.9c0-2.4-1-4.3-3.1-5.6c-1.4-0.9-5-2.1-10.8-3.6c-7.7-2-13.1-3.6-16.1-5.1c-3-1.4-5.3-3.4-6.8-5.9   c-1.5-2.5-2.3-5.3-2.3-8.3c0-2.8,0.6-5.3,1.9-7.7c1.3-2.4,3-4.3,5.2-5.9c1.6-1.2,3.9-2.2,6.7-3.1c2.8-0.8,5.9-1.3,9.1-1.3   c4.9,0,9.2,0.7,12.9,2.1s6.4,3.3,8.2,5.7s3,5.6,3.6,9.6l-10.3,1.4c-0.5-3.2-1.8-5.7-4.1-7.5c-2.2-1.8-5.4-2.7-9.5-2.7   c-4.8,0-8.3,0.8-10.4,2.4c-2.1,1.6-3.1,3.5-3.1,5.6c0,1.4,0.4,2.6,1.3,3.7c0.9,1.1,2.2,2.1,4,2.8c1.1,0.4,4.2,1.3,9.3,2.7   c7.5,2,12.7,3.6,15.6,4.9c2.9,1.3,5.3,3.1,6.9,5.5c1.7,2.4,2.5,5.4,2.5,9c0,3.5-1,6.8-3.1,9.9s-5,5.5-8.9,7.2s-8.2,2.5-13.1,2.5   c-8.1,0-14.2-1.7-18.5-5C242.1,95.9,239.4,90.9,238.2,84.3z"/>
	<path class="st0" d="M313.7,102.9l-19-62.2h10.9l9.9,35.9l3.7,13.4c0.2-0.7,1.2-4.9,3.2-12.8l9.9-36.4h10.8l9.3,36.1l3.1,11.9   l3.6-12l10.7-36H380l-19.5,62.2h-11l-9.9-37.3L337.3,55l-12.6,47.9H313.7z"/>
	<path class="st0" d="M389.6,102.9V17h17.1L427,77.8c1.9,5.7,3.2,9.9,4.1,12.7c1-3.1,2.5-7.7,4.6-13.8L456.3,17h15.3v85.9h-11V31   l-25,71.9h-10.3l-24.8-73.1v73.1H389.6z"/>
	<path class="st0" d="M480.2,102.9l33-85.9h12.2l35.2,85.9h-12.9l-10-26h-35.9l-9.4,26H480.2z M505,67.6h29.1l-9-23.8   c-2.7-7.2-4.8-13.2-6.1-17.8c-1.1,5.5-2.6,11-4.6,16.4L505,67.6z"/>
	<path class="st0" d="M582.4,102.9V27.2h-28.3V17h68.1v10.1h-28.4v75.8H582.4z"/>
	<path class="st0" d="M634,102.9V17h11.4v35.3H690V17h11.4v85.9H690V62.4h-44.6v40.5H634z"/>
</g>
<rect x="29.1" y="20.9" transform="matrix(0.7071 -0.7071 0.7071 0.7071 -24.564 70.9783)" class="st0" width="88.5" height="88.5"/>
<rect x="148.1" y="32.9" transform="matrix(0.7071 -0.7071 0.7071 0.7071 6.9824 146.043)" class="st1" width="63.4" height="63.4"/>
</svg>